<svg id="Camada_1" data-name="Camada 1" xmlns="http://www.w3.org/2000/svg" viewBox="0 0 180.81 23.41"><defs><style>.cls-1{fill:#0069ad}</style></defs><path class="cls-1" d="M8.7 17.71a8.42 8.42 0 006-2.49l-2.28-2.29a5.24 5.24 0 110-7.41l2.28-2.28a8.48 8.48 0 10-6 14.47z" transform="translate(-.22 -.75)"/><path class="cls-1" d="M26.62 3.25V0H14.48v2.49l5.16 5.98-5.16 6v2.48l4.11.01v-6.85h5.05V6.86h-5.05V3.25h8.03z"/><path fill="#14162c" d="M13.33 6.49l2.01 2.01-2.01 2V6.49"/><path class="cls-1" d="M54.53 9.66q0 4.37-2.15 6.64c-1.43 1.52-3.52 2.27-6.27 2.27a8.23 8.23 0 01-6.25-2.28c-1.45-1.53-2.17-3.74-2.17-6.66s.72-5.08 2.16-6.6A8.24 8.24 0 0146.13.75c2.76 0 4.87.76 6.26 2.25s2.14 3.74 2.14 6.66zm-11.92 0c0 3.34 1.17 5 3.5 5a3 3 0 002.63-1.22 6.69 6.69 0 00.86-3.8 6.71 6.71 0 00-.87-3.83 3 3 0 00-2.6-1.24c-2.34.02-3.52 1.71-3.52 5.09zm23.23 8.68V11a4.16 4.16 0 00-.38-2 1.33 1.33 0 00-1.24-.68 1.78 1.78 0 00-1.69.94 7 7 0 00-.52 3.2v5.88h-4.63V4.92h3.49l.58 1.66h.27a3.71 3.71 0 011.64-1.42 5.76 5.76 0 012.41-.48A4.59 4.59 0 0169.24 6a5.05 5.05 0 011.23 3.63v8.73zm14.26.23a7.18 7.18 0 01-5.2-1.78 6.7 6.7 0 01-1.9-5.07 7.29 7.29 0 011.76-5.22 6.42 6.42 0 014.9-1.82 6.47 6.47 0 014.68 1.59A6 6 0 0186 10.82v2.06h-8.28a2.29 2.29 0 00.82 1.76 3.21 3.21 0 002.12.64 10.42 10.42 0 002.24-.23 11.07 11.07 0 002.22-.79v3.33a8.22 8.22 0 01-2.25.77 15.79 15.79 0 01-2.77.21zm-.27-10.74a2 2 0 00-1.37.52 2.43 2.43 0 00-.65 1.65h4a2.31 2.31 0 00-.55-1.56 1.83 1.83 0 00-1.43-.61zm13.66 10.51h-4.61V1h10.23v3.78h-5.62v3.3h5.19v3.76h-5.19zm16.94 0l-.89-1.78h-.09a5.34 5.34 0 01-1.91 1.59 6.34 6.34 0 01-2.51.42 4 4 0 01-3-1.13 4.43 4.43 0 01-1.09-3.2 3.64 3.64 0 011.49-3.19 8.2 8.2 0 014.32-1.18L109 9.8v-.19A1.46 1.46 0 00107.38 8a9.68 9.68 0 00-3.73 1l-1.34-3.06a12.94 12.94 0 015.92-1.21 5.79 5.79 0 014 1.28 4.6 4.6 0 011.41 3.58v8.8zm-3.43-3a2.08 2.08 0 001.44-.54 1.75 1.75 0 00.6-1.38v-1h-1.07q-2.28.09-2.28 1.68c0 .8.43 1.21 1.31 1.21zm15.9 3.23a6.6 6.6 0 01-5-1.77 7.13 7.13 0 01-1.7-5.11 7 7 0 011.84-5.17 7.07 7.07 0 015.22-1.84 9.76 9.76 0 014.39 1l-1.35 3.45a14.89 14.89 0 00-1.55-.59 4.91 4.91 0 00-1.48-.22 2 2 0 00-1.74.88 4.23 4.23 0 00-.62 2.47c0 2.15.79 3.22 2.38 3.22a7.2 7.2 0 003.91-1.18v3.68a7.61 7.61 0 01-4.3 1.18zm13.53-3.66a6.81 6.81 0 002.24-.46v3.38a8.69 8.69 0 01-1.78.57 9.74 9.74 0 01-2 .17 4.35 4.35 0 01-3.37-1.14 5.14 5.14 0 01-1-3.51V8.39h-1.62V6.51l2.1-1.46 1.2-2.82h3v2.69h3.29v3.47h-3.29v5.22c-.02.87.4 1.3 1.23 1.3zm17.4-3.31a7.11 7.11 0 01-1.77 5.13 6.56 6.56 0 01-5 1.84 6.39 6.39 0 01-4.86-1.88 7.05 7.05 0 01-1.81-5.09 7 7 0 011.77-5.1 6.63 6.63 0 015-1.82 7.07 7.07 0 013.49.85 5.76 5.76 0 012.35 2.4 7.79 7.79 0 01.83 3.67zm-8.69 0a5.9 5.9 0 00.46 2.63 1.59 1.59 0 001.55.91 1.55 1.55 0 001.52-.91 6.09 6.09 0 00.44-2.63 5.84 5.84 0 00-.45-2.6 1.78 1.78 0 00-3.06 0 5.7 5.7 0 00-.46 2.6zm19.42-6.92a6.93 6.93 0 011.15.1h.26l-.41 4.37a6.52 6.52 0 00-1.56-.1 3 3 0 00-2.2.7 2.69 2.69 0 00-.68 2v6.6h-4.63V4.92h3.44l.72 2.14h.23a4.58 4.58 0 011.61-1.72 3.89 3.89 0 012.07-.66zm1.66.24h4.88l2.27 7.7a7.6 7.6 0 01.23 1.45h.09a8.37 8.37 0 01.29-1.43l2.33-7.72H181l-5.3 14.27a8.36 8.36 0 01-2.48 3.81 6.24 6.24 0 01-3.87 1.12 9.67 9.67 0 01-1.9-.2v-3.59a6.89 6.89 0 001.44.14 2.25 2.25 0 001.07-.24 2.46 2.46 0 00.81-.67 5.93 5.93 0 00.73-1.41z" transform="translate(-.22 -.75)"/><path fill="none" stroke="#0069ad" stroke-miterlimit="10" d="M31.99 0v16.96"/></svg>